<mxfile host="Electron" agent="Mozilla/5.0 (Macintosh; Intel Mac OS X 10_15_7) AppleWebKit/537.36 (KHTML, like Gecko) draw.io/26.2.15 Chrome/134.0.6998.205 Electron/35.2.1 Safari/537.36" version="26.2.15">
  <diagram id="I9baKLFgBUNJ3ZxSNFhL" name="data_flow_diagram">
    <mxGraphModel dx="1627" dy="1087" grid="1" gridSize="10" guides="1" tooltips="1" connect="1" arrows="1" fold="1" page="1" pageScale="1" pageWidth="1654" pageHeight="1169" math="0" shadow="0">
      <root>
        <mxCell id="0" />
        <mxCell id="1" parent="0" />
        <mxCell id="dqo0ZGQcrcyykXeaS5a2-31" value="" style="rounded=0;whiteSpace=wrap;html=1;fillStyle=auto;fillColor=none;fontColor=#333333;strokeColor=#666666;" vertex="1" parent="1">
          <mxGeometry x="30" y="30" width="1250" height="700" as="geometry" />
        </mxCell>
        <mxCell id="qIBQ2dLg3ho_yZMvUHFg-1" value="&lt;b&gt;&lt;font style=&quot;font-size: 30px;&quot;&gt;Data Flow Diagram&lt;/font&gt;&lt;/b&gt;" style="text;html=1;align=center;verticalAlign=middle;whiteSpace=wrap;rounded=0;" parent="1" vertex="1">
          <mxGeometry x="40" y="40" width="320" height="90" as="geometry" />
        </mxCell>
        <mxCell id="qIBQ2dLg3ho_yZMvUHFg-2" value="" style="rounded=0;whiteSpace=wrap;html=1;fillColor=none;dashed=1;" parent="1" vertex="1">
          <mxGeometry x="120" y="160" width="200" height="480" as="geometry" />
        </mxCell>
        <mxCell id="qIBQ2dLg3ho_yZMvUHFg-4" value="&lt;font style=&quot;font-size: 24px;&quot;&gt;Source&lt;/font&gt;" style="rounded=0;whiteSpace=wrap;html=1;strokeColor=none;" parent="1" vertex="1">
          <mxGeometry x="160" y="130" width="120" height="60" as="geometry" />
        </mxCell>
        <mxCell id="qIBQ2dLg3ho_yZMvUHFg-18" style="edgeStyle=orthogonalEdgeStyle;rounded=0;orthogonalLoop=1;jettySize=auto;html=1;entryX=0;entryY=0.5;entryDx=0;entryDy=0;" parent="1" source="qIBQ2dLg3ho_yZMvUHFg-5" target="qIBQ2dLg3ho_yZMvUHFg-15" edge="1">
          <mxGeometry relative="1" as="geometry" />
        </mxCell>
        <mxCell id="qIBQ2dLg3ho_yZMvUHFg-19" style="edgeStyle=orthogonalEdgeStyle;rounded=0;orthogonalLoop=1;jettySize=auto;html=1;" parent="1" source="qIBQ2dLg3ho_yZMvUHFg-5" target="qIBQ2dLg3ho_yZMvUHFg-16" edge="1">
          <mxGeometry relative="1" as="geometry" />
        </mxCell>
        <mxCell id="qIBQ2dLg3ho_yZMvUHFg-20" style="edgeStyle=orthogonalEdgeStyle;rounded=0;orthogonalLoop=1;jettySize=auto;html=1;entryX=0;entryY=0.5;entryDx=0;entryDy=0;" parent="1" source="qIBQ2dLg3ho_yZMvUHFg-5" target="qIBQ2dLg3ho_yZMvUHFg-17" edge="1">
          <mxGeometry relative="1" as="geometry" />
        </mxCell>
        <mxCell id="qIBQ2dLg3ho_yZMvUHFg-5" value="&lt;b&gt;&lt;font style=&quot;font-size: 20px;&quot;&gt;CRM&lt;/font&gt;&lt;/b&gt;" style="image;aspect=fixed;html=1;points=[];align=center;fontSize=12;image=img/lib/azure2/general/Folder_Blank.svg;" parent="1" vertex="1">
          <mxGeometry x="185.5" y="292" width="69" height="56.00000000000001" as="geometry" />
        </mxCell>
        <mxCell id="qIBQ2dLg3ho_yZMvUHFg-24" style="edgeStyle=orthogonalEdgeStyle;rounded=0;orthogonalLoop=1;jettySize=auto;html=1;entryX=0;entryY=0.5;entryDx=0;entryDy=0;" parent="1" source="qIBQ2dLg3ho_yZMvUHFg-6" target="qIBQ2dLg3ho_yZMvUHFg-21" edge="1">
          <mxGeometry relative="1" as="geometry" />
        </mxCell>
        <mxCell id="qIBQ2dLg3ho_yZMvUHFg-25" style="edgeStyle=orthogonalEdgeStyle;rounded=0;orthogonalLoop=1;jettySize=auto;html=1;entryX=0;entryY=0.5;entryDx=0;entryDy=0;" parent="1" source="qIBQ2dLg3ho_yZMvUHFg-6" target="qIBQ2dLg3ho_yZMvUHFg-22" edge="1">
          <mxGeometry relative="1" as="geometry" />
        </mxCell>
        <mxCell id="qIBQ2dLg3ho_yZMvUHFg-26" style="edgeStyle=orthogonalEdgeStyle;rounded=0;orthogonalLoop=1;jettySize=auto;html=1;entryX=0;entryY=0.5;entryDx=0;entryDy=0;" parent="1" source="qIBQ2dLg3ho_yZMvUHFg-6" target="qIBQ2dLg3ho_yZMvUHFg-23" edge="1">
          <mxGeometry relative="1" as="geometry" />
        </mxCell>
        <mxCell id="qIBQ2dLg3ho_yZMvUHFg-6" value="&lt;b&gt;&lt;font style=&quot;font-size: 20px;&quot;&gt;ERP&lt;/font&gt;&lt;/b&gt;" style="image;aspect=fixed;html=1;points=[];align=center;fontSize=12;image=img/lib/azure2/general/Folder_Blank.svg;" parent="1" vertex="1">
          <mxGeometry x="185.5" y="482" width="69" height="56.00000000000001" as="geometry" />
        </mxCell>
        <mxCell id="qIBQ2dLg3ho_yZMvUHFg-13" value="" style="rounded=1;whiteSpace=wrap;html=1;fillColor=#ffe6cc;strokeColor=#d79b00;dashed=1;shadow=1;strokeWidth=2;arcSize=10;fillStyle=hatch;fillOpacity=50;" parent="1" vertex="1">
          <mxGeometry x="395" y="220" width="210" height="420" as="geometry" />
        </mxCell>
        <mxCell id="qIBQ2dLg3ho_yZMvUHFg-14" value="&lt;b&gt;&lt;font style=&quot;font-size: 20px;&quot;&gt;Bronze Layer&lt;/font&gt;&lt;/b&gt;" style="rounded=1;whiteSpace=wrap;html=1;fillColor=#ffe6cc;strokeColor=#d79b00;" parent="1" vertex="1">
          <mxGeometry x="395" y="160" width="210" height="50" as="geometry" />
        </mxCell>
        <mxCell id="dqo0ZGQcrcyykXeaS5a2-17" value="" style="edgeStyle=orthogonalEdgeStyle;rounded=0;orthogonalLoop=1;jettySize=auto;html=1;entryX=0;entryY=0.5;entryDx=0;entryDy=0;" edge="1" parent="1" source="qIBQ2dLg3ho_yZMvUHFg-15" target="dqo0ZGQcrcyykXeaS5a2-3">
          <mxGeometry relative="1" as="geometry" />
        </mxCell>
        <mxCell id="qIBQ2dLg3ho_yZMvUHFg-15" value="&lt;font style=&quot;font-size: 15px;&quot;&gt;crm_sales_details&lt;/font&gt;" style="rounded=1;whiteSpace=wrap;html=1;fillColor=#ffe6cc;strokeColor=#d79b00;" parent="1" vertex="1">
          <mxGeometry x="410" y="250" width="180" height="40" as="geometry" />
        </mxCell>
        <mxCell id="dqo0ZGQcrcyykXeaS5a2-18" style="edgeStyle=orthogonalEdgeStyle;rounded=0;orthogonalLoop=1;jettySize=auto;html=1;entryX=0;entryY=0.5;entryDx=0;entryDy=0;" edge="1" parent="1" source="qIBQ2dLg3ho_yZMvUHFg-16" target="dqo0ZGQcrcyykXeaS5a2-4">
          <mxGeometry relative="1" as="geometry" />
        </mxCell>
        <mxCell id="qIBQ2dLg3ho_yZMvUHFg-16" value="&lt;font style=&quot;font-size: 15px;&quot;&gt;crm_cust_info&lt;/font&gt;" style="rounded=1;whiteSpace=wrap;html=1;fillColor=#ffe6cc;strokeColor=#d79b00;" parent="1" vertex="1">
          <mxGeometry x="410" y="300" width="180" height="40" as="geometry" />
        </mxCell>
        <mxCell id="dqo0ZGQcrcyykXeaS5a2-19" style="edgeStyle=orthogonalEdgeStyle;rounded=0;orthogonalLoop=1;jettySize=auto;html=1;" edge="1" parent="1" source="qIBQ2dLg3ho_yZMvUHFg-17" target="dqo0ZGQcrcyykXeaS5a2-5">
          <mxGeometry relative="1" as="geometry" />
        </mxCell>
        <mxCell id="qIBQ2dLg3ho_yZMvUHFg-17" value="&lt;font style=&quot;font-size: 15px;&quot;&gt;crm_prd_info&lt;/font&gt;" style="rounded=1;whiteSpace=wrap;html=1;fillColor=#ffe6cc;strokeColor=#d79b00;" parent="1" vertex="1">
          <mxGeometry x="410" y="350" width="180" height="40" as="geometry" />
        </mxCell>
        <mxCell id="dqo0ZGQcrcyykXeaS5a2-20" style="edgeStyle=orthogonalEdgeStyle;rounded=0;orthogonalLoop=1;jettySize=auto;html=1;" edge="1" parent="1" source="qIBQ2dLg3ho_yZMvUHFg-21" target="dqo0ZGQcrcyykXeaS5a2-6">
          <mxGeometry relative="1" as="geometry" />
        </mxCell>
        <mxCell id="qIBQ2dLg3ho_yZMvUHFg-21" value="&lt;font style=&quot;font-size: 15px;&quot;&gt;erp_cust_az12&lt;/font&gt;" style="rounded=1;whiteSpace=wrap;html=1;fillColor=#ffe6cc;strokeColor=#d79b00;" parent="1" vertex="1">
          <mxGeometry x="410" y="440" width="180" height="40" as="geometry" />
        </mxCell>
        <mxCell id="dqo0ZGQcrcyykXeaS5a2-21" style="edgeStyle=orthogonalEdgeStyle;rounded=0;orthogonalLoop=1;jettySize=auto;html=1;entryX=0;entryY=0.5;entryDx=0;entryDy=0;" edge="1" parent="1" source="qIBQ2dLg3ho_yZMvUHFg-22" target="dqo0ZGQcrcyykXeaS5a2-7">
          <mxGeometry relative="1" as="geometry" />
        </mxCell>
        <mxCell id="qIBQ2dLg3ho_yZMvUHFg-22" value="&lt;font style=&quot;font-size: 15px;&quot;&gt;erp_loc_a101&lt;/font&gt;" style="rounded=1;whiteSpace=wrap;html=1;fillColor=#ffe6cc;strokeColor=#d79b00;" parent="1" vertex="1">
          <mxGeometry x="410" y="490" width="180" height="40" as="geometry" />
        </mxCell>
        <mxCell id="dqo0ZGQcrcyykXeaS5a2-22" style="edgeStyle=orthogonalEdgeStyle;rounded=0;orthogonalLoop=1;jettySize=auto;html=1;entryX=0;entryY=0.5;entryDx=0;entryDy=0;" edge="1" parent="1" source="qIBQ2dLg3ho_yZMvUHFg-23" target="dqo0ZGQcrcyykXeaS5a2-8">
          <mxGeometry relative="1" as="geometry" />
        </mxCell>
        <mxCell id="qIBQ2dLg3ho_yZMvUHFg-23" value="&lt;font style=&quot;font-size: 15px;&quot;&gt;erp_px_cat_g1v2&lt;/font&gt;" style="rounded=1;whiteSpace=wrap;html=1;fillColor=#ffe6cc;strokeColor=#d79b00;" parent="1" vertex="1">
          <mxGeometry x="410" y="540" width="180" height="40" as="geometry" />
        </mxCell>
        <mxCell id="dqo0ZGQcrcyykXeaS5a2-1" value="" style="rounded=1;whiteSpace=wrap;html=1;fillColor=default;strokeColor=#666666;dashed=1;shadow=1;strokeWidth=2;arcSize=10;fontColor=#333333;fillStyle=hatch;fillOpacity=50;" vertex="1" parent="1">
          <mxGeometry x="695" y="220" width="210" height="420" as="geometry" />
        </mxCell>
        <mxCell id="dqo0ZGQcrcyykXeaS5a2-2" value="&lt;b&gt;&lt;font style=&quot;font-size: 20px;&quot;&gt;Silver Layer&lt;/font&gt;&lt;/b&gt;" style="rounded=1;whiteSpace=wrap;html=1;fillColor=#f5f5f5;strokeColor=#666666;fontColor=#333333;" vertex="1" parent="1">
          <mxGeometry x="695" y="160" width="210" height="50" as="geometry" />
        </mxCell>
        <mxCell id="dqo0ZGQcrcyykXeaS5a2-3" value="&lt;font style=&quot;font-size: 15px;&quot;&gt;crm_sales_details&lt;/font&gt;" style="rounded=1;whiteSpace=wrap;html=1;fillColor=#f5f5f5;strokeColor=#666666;fontColor=#333333;" vertex="1" parent="1">
          <mxGeometry x="710" y="250" width="180" height="40" as="geometry" />
        </mxCell>
        <mxCell id="dqo0ZGQcrcyykXeaS5a2-4" value="&lt;font style=&quot;font-size: 15px;&quot;&gt;crm_cust_info&lt;/font&gt;" style="rounded=1;whiteSpace=wrap;html=1;fillColor=#f5f5f5;strokeColor=#666666;fontColor=#333333;" vertex="1" parent="1">
          <mxGeometry x="710" y="300" width="180" height="40" as="geometry" />
        </mxCell>
        <mxCell id="dqo0ZGQcrcyykXeaS5a2-5" value="&lt;font style=&quot;font-size: 15px;&quot;&gt;crm_prd_info&lt;/font&gt;" style="rounded=1;whiteSpace=wrap;html=1;fillColor=#f5f5f5;strokeColor=#666666;fontColor=#333333;" vertex="1" parent="1">
          <mxGeometry x="710" y="350" width="180" height="40" as="geometry" />
        </mxCell>
        <mxCell id="dqo0ZGQcrcyykXeaS5a2-6" value="&lt;font style=&quot;font-size: 15px;&quot;&gt;erp_cust_az12&lt;/font&gt;" style="rounded=1;whiteSpace=wrap;html=1;fillColor=#f5f5f5;strokeColor=#666666;fontColor=#333333;" vertex="1" parent="1">
          <mxGeometry x="710" y="440" width="180" height="40" as="geometry" />
        </mxCell>
        <mxCell id="dqo0ZGQcrcyykXeaS5a2-7" value="&lt;font style=&quot;font-size: 15px;&quot;&gt;erp_loc_a101&lt;/font&gt;" style="rounded=1;whiteSpace=wrap;html=1;fillColor=#f5f5f5;strokeColor=#666666;fontColor=#333333;" vertex="1" parent="1">
          <mxGeometry x="710" y="490" width="180" height="40" as="geometry" />
        </mxCell>
        <mxCell id="dqo0ZGQcrcyykXeaS5a2-8" value="&lt;font style=&quot;font-size: 15px;&quot;&gt;erp_px_cat_g1v2&lt;/font&gt;" style="rounded=1;whiteSpace=wrap;html=1;fillColor=#f5f5f5;strokeColor=#666666;fontColor=#333333;" vertex="1" parent="1">
          <mxGeometry x="710" y="540" width="180" height="40" as="geometry" />
        </mxCell>
        <mxCell id="dqo0ZGQcrcyykXeaS5a2-9" value="" style="rounded=1;whiteSpace=wrap;html=1;fillColor=default;strokeColor=#d6b656;dashed=1;shadow=1;strokeWidth=2;arcSize=10;fillStyle=hatch;fillOpacity=50;" vertex="1" parent="1">
          <mxGeometry x="985" y="220" width="210" height="420" as="geometry" />
        </mxCell>
        <mxCell id="dqo0ZGQcrcyykXeaS5a2-10" value="&lt;b&gt;&lt;font style=&quot;font-size: 20px;&quot;&gt;Gold Layer&lt;/font&gt;&lt;/b&gt;" style="rounded=1;whiteSpace=wrap;html=1;fillColor=#fff2cc;strokeColor=#d6b656;" vertex="1" parent="1">
          <mxGeometry x="985" y="160" width="210" height="50" as="geometry" />
        </mxCell>
        <mxCell id="dqo0ZGQcrcyykXeaS5a2-11" value="&lt;font style=&quot;font-size: 15px;&quot;&gt;fact_sales&lt;/font&gt;" style="rounded=1;whiteSpace=wrap;html=1;fillColor=#fff2cc;strokeColor=#d6b656;" vertex="1" parent="1">
          <mxGeometry x="1000" y="250" width="180" height="40" as="geometry" />
        </mxCell>
        <mxCell id="dqo0ZGQcrcyykXeaS5a2-12" value="&lt;font style=&quot;font-size: 15px;&quot;&gt;dim_customers&lt;/font&gt;" style="rounded=1;whiteSpace=wrap;html=1;fillColor=#fff2cc;strokeColor=#d6b656;" vertex="1" parent="1">
          <mxGeometry x="1000" y="350" width="180" height="40" as="geometry" />
        </mxCell>
        <mxCell id="dqo0ZGQcrcyykXeaS5a2-13" value="&lt;font style=&quot;font-size: 15px;&quot;&gt;dim_products&lt;/font&gt;" style="rounded=1;whiteSpace=wrap;html=1;fillColor=#fff2cc;strokeColor=#d6b656;" vertex="1" parent="1">
          <mxGeometry x="1000" y="490" width="180" height="40" as="geometry" />
        </mxCell>
        <mxCell id="dqo0ZGQcrcyykXeaS5a2-24" value="" style="endArrow=classic;html=1;rounded=0;entryX=0;entryY=0.5;entryDx=0;entryDy=0;exitX=1;exitY=0.5;exitDx=0;exitDy=0;" edge="1" parent="1" source="dqo0ZGQcrcyykXeaS5a2-3" target="dqo0ZGQcrcyykXeaS5a2-11">
          <mxGeometry width="50" height="50" relative="1" as="geometry">
            <mxPoint x="910" y="460" as="sourcePoint" />
            <mxPoint x="960" y="410" as="targetPoint" />
          </mxGeometry>
        </mxCell>
        <mxCell id="dqo0ZGQcrcyykXeaS5a2-25" value="" style="endArrow=classic;html=1;rounded=0;entryX=0;entryY=0.5;entryDx=0;entryDy=0;exitX=1;exitY=0.5;exitDx=0;exitDy=0;" edge="1" parent="1" source="dqo0ZGQcrcyykXeaS5a2-4" target="dqo0ZGQcrcyykXeaS5a2-12">
          <mxGeometry width="50" height="50" relative="1" as="geometry">
            <mxPoint x="900" y="320" as="sourcePoint" />
            <mxPoint x="1010" y="400" as="targetPoint" />
          </mxGeometry>
        </mxCell>
        <mxCell id="dqo0ZGQcrcyykXeaS5a2-27" value="" style="endArrow=classic;html=1;rounded=0;entryX=0;entryY=0.5;entryDx=0;entryDy=0;exitX=1;exitY=0.5;exitDx=0;exitDy=0;" edge="1" parent="1" source="dqo0ZGQcrcyykXeaS5a2-5" target="dqo0ZGQcrcyykXeaS5a2-13">
          <mxGeometry width="50" height="50" relative="1" as="geometry">
            <mxPoint x="900" y="343" as="sourcePoint" />
            <mxPoint x="1010" y="423" as="targetPoint" />
          </mxGeometry>
        </mxCell>
        <mxCell id="dqo0ZGQcrcyykXeaS5a2-28" value="" style="endArrow=classic;html=1;rounded=0;entryX=0;entryY=0.5;entryDx=0;entryDy=0;exitX=1;exitY=0.5;exitDx=0;exitDy=0;" edge="1" parent="1" source="dqo0ZGQcrcyykXeaS5a2-6" target="dqo0ZGQcrcyykXeaS5a2-12">
          <mxGeometry width="50" height="50" relative="1" as="geometry">
            <mxPoint x="900" y="345" as="sourcePoint" />
            <mxPoint x="1010" y="425" as="targetPoint" />
          </mxGeometry>
        </mxCell>
        <mxCell id="dqo0ZGQcrcyykXeaS5a2-29" value="" style="endArrow=classic;html=1;rounded=0;entryX=0;entryY=0.5;entryDx=0;entryDy=0;exitX=1;exitY=0.5;exitDx=0;exitDy=0;" edge="1" parent="1" source="dqo0ZGQcrcyykXeaS5a2-7" target="dqo0ZGQcrcyykXeaS5a2-12">
          <mxGeometry width="50" height="50" relative="1" as="geometry">
            <mxPoint x="900" y="470" as="sourcePoint" />
            <mxPoint x="1010" y="410" as="targetPoint" />
          </mxGeometry>
        </mxCell>
        <mxCell id="dqo0ZGQcrcyykXeaS5a2-30" value="" style="endArrow=classic;html=1;rounded=0;entryX=0;entryY=0.5;entryDx=0;entryDy=0;exitX=1;exitY=0.5;exitDx=0;exitDy=0;" edge="1" parent="1" source="dqo0ZGQcrcyykXeaS5a2-8" target="dqo0ZGQcrcyykXeaS5a2-13">
          <mxGeometry width="50" height="50" relative="1" as="geometry">
            <mxPoint x="900" y="520" as="sourcePoint" />
            <mxPoint x="1010" y="410" as="targetPoint" />
          </mxGeometry>
        </mxCell>
      </root>
    </mxGraphModel>
  </diagram>
</mxfile>
